<?xml version="1.0" standalone="no"?>
<!DOCTYPE svg PUBLIC "-//W3C//DTD SVG 20010904//EN"
 "http://www.w3.org/TR/2001/REC-SVG-20010904/DTD/svg10.dtd">
<svg version="1.0" xmlns="http://www.w3.org/2000/svg"
 width="100.000000pt" height="100.000000pt" viewBox="0 0 100.000000 100.000000"
 preserveAspectRatio="xMidYMid meet">

<g transform="translate(0.000000,100.000000) scale(0.100000,-0.100000)"
fill="#000000" stroke="none">
<path d="M380 810 c-35 -12 -65 -31 -83 -52 -57 -66 -57 -64 -46 -181 8 -98 7
-116 -11 -174 -11 -36 -20 -78 -20 -94 0 -19 -5 -29 -15 -29 -11 0 -15 -12
-15 -50 l0 -50 90 0 c85 0 90 1 90 21 0 20 4 21 46 15 26 -3 55 -6 65 -6 11 0
19 -7 19 -15 0 -13 23 -15 145 -15 132 0 147 2 165 20 21 21 28 80 10 80 -5 0
-10 17 -10 39 0 60 -27 86 -105 102 -46 9 -69 19 -79 34 -8 12 -32 27 -54 33
-22 7 -52 26 -66 43 -24 29 -26 37 -26 140 0 66 -4 109 -10 109 -5 0 -10 11
-10 25 0 30 -8 30 -80 5z m53 -41 c-10 -10 -116 -38 -122 -33 -10 9 27 35 75
53 43 17 49 17 52 4 2 -8 0 -19 -5 -24z m27 -106 c0 -123 15 -153 96 -189 50
-22 55 -27 52 -52 -3 -24 -7 -27 -46 -30 -32 -2 -61 5 -109 27 -36 17 -84 33
-107 36 -39 5 -39 4 9 -9 28 -7 75 -25 105 -40 68 -32 133 -35 152 -7 14 19
16 19 83 2 43 -10 69 -22 67 -29 -1 -7 5 -12 13 -12 11 0 15 -12 15 -45 l0
-45 -57 0 c-32 0 -68 -3 -80 -6 -17 -5 -23 -2 -23 10 0 26 53 77 90 86 28 6
30 8 10 9 -39 1 -87 -33 -101 -73 l-13 -36 -72 0 c-39 0 -92 3 -117 6 -44 6
-46 8 -52 45 -4 22 -15 49 -26 61 l-19 23 15 -31 c8 -17 18 -45 21 -62 l7 -32
-67 0 -66 0 0 31 c0 46 21 120 36 126 8 3 11 9 8 14 -3 5 1 9 8 9 9 0 10 2 1
8 -6 4 -15 35 -18 68 l-7 61 33 7 c53 10 69 32 69 91 0 50 1 53 33 63 58 18
57 20 57 -85z m-100 47 c0 -11 -6 -20 -12 -21 -10 0 -10 -2 0 -6 6 -2 12 -11
12 -19 0 -8 -6 -14 -12 -14 -10 0 -10 -2 0 -9 18 -11 -4 -29 -46 -37 -28 -6
-32 -4 -32 14 0 15 8 22 28 25 25 4 25 4 -5 6 -22 0 -33 6 -33 16 0 10 11 15
33 16 l32 1 -29 7 c-24 5 -26 8 -15 17 36 29 79 31 79 4z m-130 -480 c0 -16
-4 -30 -10 -30 -5 0 -10 14 -10 30 0 17 5 30 10 30 6 0 10 -13 10 -30z m30 0
c0 -16 -4 -30 -10 -30 -5 0 -10 14 -10 30 0 17 5 30 10 30 6 0 10 -13 10 -30z
m30 0 c0 -16 -4 -30 -10 -30 -5 0 -10 14 -10 30 0 17 5 30 10 30 6 0 10 -13
10 -30z m30 0 c0 -16 -4 -30 -10 -30 -5 0 -10 14 -10 30 0 17 5 30 10 30 6 0
10 -13 10 -30z m143 24 c72 -7 77 -8 77 -30 0 -13 -4 -24 -10 -24 -5 0 -10 6
-10 14 0 9 -20 15 -61 20 -98 10 -109 9 -109 -14 0 -11 -4 -20 -10 -20 -5 0
-10 14 -10 30 0 34 2 35 133 24z m227 -24 c0 -16 -4 -30 -10 -30 -5 0 -10 14
-10 30 0 17 5 30 10 30 6 0 10 -13 10 -30z m30 0 c0 -16 -4 -30 -10 -30 -5 0
-10 14 -10 30 0 17 5 30 10 30 6 0 10 -13 10 -30z m30 0 c0 -16 -4 -30 -10
-30 -5 0 -10 14 -10 30 0 17 5 30 10 30 6 0 10 -13 10 -30z m30 0 c0 -16 -4
-30 -10 -30 -5 0 -10 14 -10 30 0 17 5 30 10 30 6 0 10 -13 10 -30z m30 11 c0
-11 -4 -23 -10 -26 -6 -4 -10 5 -10 19 0 14 5 26 10 26 6 0 10 -9 10 -19z
m-240 -16 c0 -14 -4 -25 -10 -25 -5 0 -10 11 -10 25 0 14 5 25 10 25 6 0 10
-11 10 -25z m30 0 c0 -14 -4 -25 -10 -25 -5 0 -10 11 -10 25 0 14 5 25 10 25
6 0 10 -11 10 -25z m30 0 c0 -14 -4 -25 -10 -25 -5 0 -10 11 -10 25 0 14 5 25
10 25 6 0 10 -11 10 -25z m30 0 c0 -14 -4 -25 -10 -25 -5 0 -10 11 -10 25 0
14 5 25 10 25 6 0 10 -11 10 -25z"/>
<path d="M404 689 c-10 -17 13 -36 27 -22 12 12 4 33 -11 33 -5 0 -12 -5 -16
-11z m26 -9 c0 -5 -4 -10 -10 -10 -5 0 -10 5 -10 10 0 6 5 10 10 10 6 0 10 -4
10 -10z"/>
<path d="M404 609 c-10 -17 13 -36 27 -22 12 12 4 33 -11 33 -5 0 -12 -5 -16
-11z m26 -9 c0 -5 -4 -10 -10 -10 -5 0 -10 5 -10 10 0 6 5 10 10 10 6 0 10 -4
10 -10z"/>
<path d="M414 529 c-10 -17 13 -36 27 -22 12 12 4 33 -11 33 -5 0 -12 -5 -16
-11z m26 -9 c0 -5 -4 -10 -10 -10 -5 0 -10 5 -10 10 0 6 5 10 10 10 6 0 10 -4
10 -10z"/>
<path d="M464 479 c-10 -17 13 -36 27 -22 12 12 4 33 -11 33 -5 0 -12 -5 -16
-11z m26 -9 c0 -5 -4 -10 -10 -10 -5 0 -10 5 -10 10 0 6 5 10 10 10 6 0 10 -4
10 -10z"/>
<path d="M534 439 c-10 -17 13 -36 27 -22 12 12 4 33 -11 33 -5 0 -12 -5 -16
-11z m26 -9 c0 -5 -4 -10 -10 -10 -5 0 -10 5 -10 10 0 6 5 10 10 10 6 0 10 -4
10 -10z"/>
<path d="M305 410 c3 -5 11 -10 16 -10 6 0 7 5 4 10 -3 6 -11 10 -16 10 -6 0
-7 -4 -4 -10z"/>
</g>
</svg>
